<svg width="54" height="52" viewBox="0 0 54 52" fill="none" xmlns="http://www.w3.org/2000/svg">
<path d="M27.5662 33.3317C27.5025 33.2068 27.454 33.1106 27.4042 33.0151C26.791 31.8382 25.3135 31.0739 24.0015 31.2547C22.8749 31.4098 21.9361 32.3465 21.6063 33.6689C21.2508 35.0949 21.5075 36.4696 22.0204 37.8062C22.8571 39.9858 24.182 41.85 25.8139 43.4997C26.9426 44.6406 27.8427 44.6213 28.9536 43.4606C30.4958 41.849 31.7474 40.0396 32.6158 37.9773C33.1277 36.7624 33.5045 35.5108 33.5616 34.1821C33.603 33.2225 33.4793 32.2983 32.9332 31.4746C32.2395 30.4287 31.0984 30.1205 29.9761 30.6727C29.2783 31.016 28.7268 31.5287 28.2914 32.1645C28.0418 32.5291 27.8237 32.915 27.5662 33.3317ZM49.2873 39.4587C49.2616 41.2559 48.8566 42.968 48.0291 44.5588C46.6247 47.2579 44.5932 49.3499 41.8732 50.7523C39.1922 52.1346 36.4446 52.2928 33.637 51.1923C32.4975 50.7454 31.3612 50.2841 30.2501 49.7719C28.2312 48.8411 26.2207 48.85 24.1561 49.6231C22.706 50.1662 21.2343 50.6614 19.7474 51.0915C18.2074 51.5371 16.6222 51.6999 15.0155 51.5166C13.6265 51.3581 12.453 50.7429 11.4363 49.8118C10.1396 48.6245 9.10199 47.2381 8.44727 45.6031C7.60814 43.5078 7.80975 41.4864 9.03145 39.5773C9.98787 38.0825 11.2792 36.8898 12.5302 35.6561C13.4396 34.7592 14.3299 33.8383 15.1675 32.8749C16.1339 31.763 16.7111 30.4214 17.1895 29.0429C17.6336 27.7639 18.0368 26.471 18.475 25.19C18.7917 24.2644 19.3726 23.4946 19.9467 22.7143C21.3288 20.8361 23.3002 20.0142 25.477 19.5305C28.0573 18.9569 30.3059 19.6965 32.2248 21.3937C33.4055 22.4378 34.4275 23.6609 35.5264 24.7982C37.3983 26.7353 39.3839 28.5444 41.6084 30.0725C42.7157 30.8332 43.8779 31.515 44.9761 32.2879C46.5473 33.3939 47.873 34.7359 48.682 36.5173C49.1057 37.4505 49.2731 38.4395 49.2873 39.4587Z" fill="#332C22"/>
<path d="M23.9521 12.8109C23.9564 14.2495 23.7015 15.8029 23.0197 17.2624C22.2902 18.8235 21.2347 20.0583 19.4989 20.5387C18.0707 20.9343 16.7521 20.6156 15.5229 19.8478C13.9057 18.838 12.8121 17.3724 11.9988 15.6869C10.8177 13.239 10.3626 10.6494 10.6046 7.9432C10.7476 6.34458 11.1997 4.85032 12.0929 3.49117C13.6332 1.14729 16.4017 0.484799 18.809 1.91111C20.3709 2.83655 21.465 4.18756 22.2968 5.76561C23.4305 7.91619 23.9706 10.2163 23.9521 12.8109Z" fill="#332C22"/>
<path d="M40.763 8.52478C40.7655 11.456 40.2244 13.9154 38.8911 16.1656C38.1456 17.424 37.1922 18.495 35.8738 19.1839C33.9469 20.1909 31.8254 19.822 30.3126 18.2472C29.1152 17.0007 28.4654 15.4834 28.1173 13.8228C27.516 10.9518 27.8263 8.14739 28.843 5.41966C29.335 4.09948 30.0539 2.89134 31.0871 1.91671C32.039 1.01864 33.1237 0.315196 34.4753 0.202941C36.1948 0.0601138 37.5449 0.788873 38.6242 2.07688C39.7366 3.4045 40.2922 4.97889 40.568 6.65942C40.6868 7.38402 40.7226 8.12225 40.763 8.52478Z" fill="#332C22"/>
<path d="M0.449463 22.6549C0.473255 21.3457 0.723106 20.115 1.50148 19.0473C2.51846 17.6518 3.94233 17.1371 5.62459 17.2425C7.32676 17.3491 8.77574 18.0844 10.0767 19.1217C12.3939 20.9694 13.9264 23.3283 14.5361 26.247C14.8061 27.5382 14.8261 28.8415 14.3744 30.0992C13.5979 32.2615 11.8264 33.3782 9.51768 33.1995C8.08131 33.0882 6.81702 32.5139 5.65697 31.6963C3.15639 29.9336 1.54645 27.5377 0.731257 24.609C0.556234 23.9803 0.539247 23.3075 0.449463 22.6549Z" fill="#332C22"/>
<path d="M53.0603 18.5712C52.6728 22.6373 51.0186 25.7805 47.8106 28.0444C46.9196 28.6731 45.9177 29.037 44.8233 29.148C42.9728 29.3356 41.2901 28.2938 40.5944 26.5111C39.9829 24.9439 40.0185 23.3402 40.4032 21.7446C41.1433 18.6732 42.7943 16.1922 45.3888 14.3734C46.5372 13.5683 47.8403 13.2396 49.2414 13.3565C50.8703 13.4924 52.2472 14.7144 52.7233 16.5117C52.9158 17.2384 52.9707 18.0011 53.0603 18.5712Z" fill="#332C22"/>
</svg>
