<svg aria-hidden="true" style="position: absolute; width: 0; height: 0; overflow: hidden;" version="1.1" xmlns="http://www.w3.org/2000/svg" xmlns:xlink="http://www.w3.org/1999/xlink">
<defs>
<symbol id="icon-icon-paw" viewBox="0 0 33 32">
<path d="M16.963 20.512c-0.039-0.077-0.069-0.136-0.1-0.195-0.377-0.724-1.287-1.195-2.094-1.083-0.693 0.095-1.271 0.672-1.474 1.486-0.219 0.878-0.061 1.724 0.255 2.546 0.515 1.341 1.33 2.489 2.334 3.504 0.695 0.702 1.248 0.69 1.932-0.024 0.949-0.992 1.719-2.105 2.254-3.374 0.315-0.748 0.547-1.518 0.582-2.335 0.025-0.591-0.051-1.159-0.387-1.666-0.427-0.644-1.129-0.833-1.82-0.493-0.429 0.211-0.769 0.527-1.037 0.918-0.154 0.224-0.288 0.462-0.446 0.718zM30.33 24.282c-0.016 1.106-0.265 2.16-0.774 3.139-0.864 1.661-2.114 2.948-3.788 3.811-1.65 0.851-3.341 0.948-5.069 0.271-0.701-0.275-1.401-0.559-2.084-0.874-1.242-0.573-2.48-0.567-3.75-0.092-0.892 0.334-1.798 0.639-2.713 0.904-0.948 0.274-1.923 0.374-2.912 0.262-0.855-0.098-1.577-0.476-2.203-1.049-0.798-0.731-1.437-1.584-1.839-2.59-0.516-1.289-0.392-2.533 0.359-3.708 0.589-0.92 1.383-1.654 2.153-2.413 0.56-0.552 1.108-1.119 1.623-1.712 0.595-0.684 0.95-1.51 1.244-2.358 0.273-0.787 0.521-1.583 0.791-2.371 0.195-0.57 0.552-1.043 0.906-1.524 0.851-1.156 2.064-1.662 3.403-1.959 1.588-0.353 2.972 0.102 4.152 1.147 0.727 0.643 1.355 1.395 2.032 2.095 1.152 1.192 2.374 2.305 3.743 3.246 0.681 0.468 1.397 0.888 2.072 1.363 0.967 0.681 1.783 1.506 2.281 2.603 0.261 0.574 0.364 1.183 0.372 1.81z"></path>
<path d="M14.739 7.884c0.003 0.885-0.154 1.841-0.574 2.739-0.449 0.961-1.099 1.721-2.167 2.016-0.879 0.243-1.69 0.047-2.447-0.425-0.995-0.621-1.668-1.523-2.169-2.561-0.727-1.506-1.007-3.1-0.858-4.765 0.088-0.984 0.366-1.903 0.916-2.74 0.948-1.442 2.652-1.85 4.133-0.972 0.961 0.57 1.634 1.401 2.146 2.372 0.698 1.323 1.030 2.739 1.019 4.336z"></path>
<path d="M25.085 5.246c0.002 1.804-0.331 3.317-1.152 4.702-0.459 0.774-1.045 1.433-1.857 1.857-1.186 0.62-2.491 0.393-3.422-0.576-0.737-0.767-1.137-1.701-1.351-2.723-0.37-1.767-0.179-3.493 0.447-5.171 0.303-0.812 0.745-1.556 1.381-2.156 0.586-0.553 1.253-0.986 2.085-1.055 1.058-0.088 1.889 0.361 2.553 1.153 0.685 0.817 1.026 1.786 1.196 2.82 0.073 0.446 0.095 0.9 0.12 1.148z"></path>
<path d="M0.276 13.941c0.015-0.806 0.168-1.563 0.647-2.22 0.626-0.859 1.502-1.175 2.537-1.111 1.047 0.066 1.939 0.518 2.74 1.156 1.426 1.137 2.369 2.589 2.744 4.385 0.166 0.795 0.178 1.597-0.1 2.371-0.478 1.331-1.568 2.018-2.989 1.908-0.884-0.069-1.662-0.422-2.376-0.925-1.539-1.085-2.53-2.559-3.031-4.361-0.108-0.387-0.118-0.801-0.173-1.203z"></path>
<path d="M32.654 11.428c-0.238 2.502-1.256 4.437-3.231 5.83-0.548 0.387-1.165 0.611-1.838 0.679-1.139 0.115-2.174-0.526-2.602-1.623-0.376-0.964-0.354-1.951-0.118-2.933 0.456-1.89 1.471-3.417 3.068-4.536 0.707-0.495 1.509-0.698 2.371-0.626 1.002 0.084 1.85 0.836 2.143 1.942 0.118 0.447 0.152 0.917 0.207 1.267z"></path>
</symbol>
<symbol id="icon-Instagram" viewBox="0 0 31 32">
<path d="M15.514 6.282c3.109 0 3.477 0.014 4.699 0.068 1.137 0.050 1.75 0.241 2.159 0.4 0.541 0.209 0.931 0.464 1.336 0.868 0.409 0.409 0.659 0.796 0.873 1.337 0.159 0.409 0.35 1.027 0.4 2.159 0.055 1.227 0.068 1.595 0.068 4.7s-0.014 3.477-0.068 4.7c-0.050 1.137-0.241 1.75-0.4 2.159-0.209 0.541-0.463 0.932-0.868 1.336-0.409 0.409-0.796 0.659-1.336 0.873-0.409 0.159-1.027 0.35-2.159 0.4-1.228 0.055-1.595 0.068-4.7 0.068s-3.477-0.014-4.7-0.068c-1.137-0.050-1.75-0.241-2.159-0.4-0.541-0.209-0.931-0.463-1.337-0.868-0.409-0.409-0.659-0.796-0.873-1.336-0.159-0.409-0.35-1.027-0.4-2.159-0.055-1.227-0.068-1.595-0.068-4.7s0.014-3.477 0.068-4.7c0.050-1.137 0.241-1.75 0.4-2.159 0.209-0.541 0.464-0.932 0.868-1.337 0.409-0.409 0.796-0.659 1.337-0.873 0.409-0.159 1.027-0.35 2.159-0.4 1.222-0.055 1.591-0.068 4.7-0.068h0.001zM15.514 4.187c-3.159 0-3.554 0.014-4.795 0.068-1.236 0.055-2.086 0.255-2.822 0.541-0.768 0.3-1.418 0.695-2.063 1.345-0.65 0.646-1.046 1.295-1.345 2.059-0.287 0.741-0.487 1.586-0.541 2.822-0.055 1.246-0.068 1.641-0.068 4.799s0.014 3.554 0.068 4.795c0.055 1.236 0.255 2.086 0.541 2.822 0.3 0.768 0.695 1.418 1.345 2.063 0.645 0.645 1.295 1.046 2.059 1.341 0.741 0.287 1.586 0.486 2.822 0.541 1.241 0.055 1.636 0.068 4.795 0.068s3.554-0.014 4.795-0.068c1.236-0.055 2.086-0.254 2.822-0.541 0.764-0.295 1.414-0.695 2.059-1.341s1.046-1.295 1.341-2.059c0.286-0.741 0.486-1.586 0.541-2.822 0.055-1.241 0.068-1.636 0.068-4.795s-0.014-3.554-0.068-4.795c-0.055-1.236-0.255-2.086-0.541-2.822-0.287-0.773-0.682-1.422-1.331-2.068-0.645-0.645-1.295-1.046-2.059-1.341-0.741-0.287-1.586-0.486-2.822-0.541-1.245-0.059-1.641-0.073-4.799-0.073l-0.001 0.001z"></path>
<path d="M15.513 9.846c-3.299 0-5.977 2.677-5.977 5.977s2.677 5.977 5.977 5.977c3.3 0 5.977-2.677 5.977-5.977s-2.677-5.977-5.977-5.977zM15.513 19.699c-2.141 0-3.877-1.736-3.877-3.877s1.736-3.877 3.877-3.877 3.877 1.736 3.877 3.877c0 2.141-1.736 3.877-3.877 3.877z"></path>
<path d="M23.119 9.609c0 0.771-0.625 1.395-1.395 1.395s-1.395-0.625-1.395-1.395c0-0.771 0.625-1.395 1.395-1.395s1.395 0.625 1.395 1.395z"></path>
</symbol>
<symbol id="icon-Facebook" viewBox="0 0 31 32">
<path d="M28.444 16.216c0-7.184-5.789-13.008-12.929-13.008s-12.929 5.824-12.929 13.008c0 6.493 4.728 11.874 10.909 12.85v-9.090h-3.283v-3.76h3.283v-2.866c0-3.26 1.93-5.061 4.883-5.061 1.415 0 2.894 0.254 2.894 0.254v3.201h-1.63c-1.606 0-2.107 1.003-2.107 2.032v2.44h3.586l-0.573 3.76h-3.013v9.090c6.181-0.976 10.909-6.357 10.909-12.85z"></path>
</symbol>

<symbol id="icon-star-filled" viewBox="0 0 35 32">
<path d="M16.119 1.031c0.579-1.375 2.551-1.375 3.13 0l3.417 8.116c0.244 0.58 0.796 0.976 1.43 1.026l8.869 0.702c1.503 0.119 2.112 1.972 0.967 2.941l-6.757 5.718c-0.483 0.408-0.694 1.049-0.546 1.66l2.064 8.55c0.35 1.449-1.245 2.594-2.532 1.817l-7.593-4.582c-0.542-0.327-1.224-0.327-1.767 0l-7.593 4.582c-1.287 0.776-2.882-0.369-2.532-1.817l2.064-8.55c0.147-0.611-0.063-1.252-0.546-1.66l-6.757-5.718c-1.145-0.969-0.536-2.822 0.967-2.941l8.869-0.702c0.633-0.050 1.185-0.446 1.429-1.026l3.417-8.116z"></path>
</symbol>
<symbol id="icon-star-empty" viewBox="0 0 35 32">
<path stroke-linejoin="miter" stroke-linecap="butt" stroke-miterlimit="4" stroke-width="3.3684" d="M17.697 1.686l3.416 8.115c0.492 1.167 1.596 1.952 2.849 2.051l8.855 0.701-6.732 5.696c-0.964 0.816-1.392 2.107-1.094 3.342l2.059 8.531c-0.003 0.002-0.004 0.004-0.007 0.005-0.003-0.001-0.007-0.003-0.013-0.007l-7.594-4.582c-1.077-0.65-2.429-0.65-3.507 0l-7.594 4.582c-0.006 0.003-0.010 0.005-0.013 0.007-0.003-0.001-0.005-0.003-0.008-0.005l2.061-8.531c0.28-1.157-0.079-2.363-0.919-3.182l-0.174-0.16-6.734-5.696 8.857-0.701c1.253-0.099 2.357-0.884 2.849-2.051l3.414-8.115c0.004-0.001 0.009-0.002 0.015-0.002s0.009 0.001 0.013 0.002z"></path>
</symbol>
<symbol id="icon-star-half" viewBox="0 0 35 32">
<path d="M11.5312 3.80664C11.7032 3.39816 12.2968 3.39816 12.4688 3.80664L14.4971 8.625C14.7155 9.14358 15.2076 9.49471 15.7676 9.53906L21.0332 9.95605C21.4909 9.99232 21.6545 10.5412 21.3242 10.8213L17.3115 14.2168C16.8819 14.5804 16.6919 15.1542 16.8242 15.7021L18.0508 20.7783C18.1502 21.1902 17.6892 21.5518 17.291 21.3115H17.29L12.7832 18.5918C12.3023 18.3016 11.6977 18.3016 11.2168 18.5918L6.70898 21.3115C6.31078 21.5518 5.84983 21.1902 5.94922 20.7783L7.17578 15.7021C7.30809 15.1543 7.11814 14.5805 6.68848 14.2168L2.67578 10.8213C2.34544 10.5412 2.5091 9.99231 2.9668 9.95605L8.23242 9.53906C8.79243 9.49471 9.28456 9.14369 9.50293 8.625L11.5312 3.80664Z" fill="url(#paint0_linear_8242_16266)" stroke="#02060A"/>
<defs>
<linearGradient id="paint0_linear_8242_16266" x1="2" y1="12.3716" x2="22" y2="12.3716" gradientUnits="userSpaceOnUse">
<stop offset="0.5" stop-color="#02060A"/>
<stop offset="0.5" stop-color="#02060A" stop-opacity="0"/>
</linearGradient>
</defs>
</symbol>

<symbol id="icon-icon-inscription" viewBox="0 0 83 32">
<path d="M57.538 21.101h3.152l-4.156 5.029 4.522 5.46h-3.246l-4.287-5.319v5.319h-2.861v-10.489h2.861v5.094l4.015-5.094z"></path>
<path d="M48.683 26.327c0 0.876-0.119 1.651-0.356 2.327-0.231 0.676-0.572 1.248-1.023 1.717-0.444 0.463-0.982 0.813-1.614 1.051-0.626 0.238-1.332 0.357-2.12 0.357-0.738 0-1.417-0.119-2.036-0.357-0.613-0.238-1.148-0.588-1.604-1.051-0.45-0.469-0.801-1.041-1.051-1.717-0.244-0.675-0.366-1.451-0.366-2.327 0-1.163 0.206-2.148 0.619-2.955s1.001-1.42 1.764-1.839 1.673-0.629 2.73-0.629c0.982 0 1.851 0.21 2.608 0.629 0.763 0.419 1.36 1.032 1.792 1.839 0.438 0.807 0.657 1.792 0.657 2.955zM41.431 26.327c0 0.688 0.075 1.267 0.225 1.736s0.385 0.822 0.704 1.060c0.319 0.238 0.735 0.356 1.248 0.356 0.507 0 0.916-0.119 1.229-0.356 0.319-0.238 0.55-0.591 0.694-1.060 0.15-0.469 0.225-1.048 0.225-1.736 0-0.694-0.075-1.27-0.225-1.726-0.144-0.463-0.375-0.81-0.694-1.041s-0.735-0.347-1.248-0.347c-0.757 0-1.307 0.26-1.651 0.779-0.338 0.519-0.507 1.298-0.507 2.336z"></path>
<path d="M36.533 21.101v10.489h-2.871v-8.34h-3.8v8.34h-2.861v-10.489h9.532z"></path>
<path d="M20.068 20.886c1.407 0 2.486 0.306 3.237 0.919s1.126 1.545 1.126 2.796v6.989h-1.998l-0.553-1.426h-0.075c-0.3 0.375-0.607 0.682-0.919 0.919s-0.672 0.413-1.079 0.525c-0.407 0.113-0.901 0.169-1.482 0.169-0.619 0-1.176-0.119-1.67-0.357-0.488-0.238-0.873-0.6-1.154-1.088-0.281-0.494-0.422-1.12-0.422-1.876 0-1.113 0.391-1.933 1.173-2.458 0.782-0.532 1.954-0.826 3.518-0.882l1.82-0.056v-0.46c0-0.55-0.144-0.954-0.432-1.21s-0.688-0.385-1.201-0.385c-0.507 0-1.004 0.072-1.492 0.216s-0.976 0.325-1.464 0.544l-0.948-1.933c0.557-0.294 1.179-0.525 1.867-0.694 0.694-0.169 1.41-0.253 2.148-0.253zM21.588 26.73l-1.107 0.038c-0.926 0.025-1.57 0.191-1.933 0.497-0.356 0.306-0.535 0.71-0.535 1.21 0 0.438 0.128 0.751 0.385 0.938 0.256 0.181 0.591 0.272 1.004 0.272 0.613 0 1.129-0.181 1.548-0.544 0.425-0.363 0.638-0.879 0.638-1.548v-0.863z"></path>
<path d="M12.921 31.59h-2.899v-11.295h-3.359c-0.075 0.588-0.156 1.229-0.244 1.923s-0.178 1.395-0.272 2.101c-0.094 0.707-0.194 1.379-0.3 2.017-0.1 0.638-0.2 1.198-0.3 1.679-0.163 0.801-0.385 1.482-0.666 2.045-0.275 0.557-0.654 0.982-1.135 1.276-0.475 0.294-1.098 0.441-1.867 0.441-0.256 0-0.503-0.019-0.741-0.056-0.231-0.038-0.447-0.088-0.647-0.15v-2.383c0.163 0.056 0.325 0.103 0.488 0.141 0.163 0.031 0.341 0.047 0.535 0.047 0.25 0 0.457-0.081 0.619-0.244 0.169-0.169 0.319-0.453 0.45-0.854 0.131-0.407 0.263-0.966 0.394-1.679 0.056-0.313 0.131-0.754 0.225-1.323 0.094-0.575 0.2-1.248 0.319-2.017 0.119-0.776 0.241-1.62 0.366-2.533 0.131-0.913 0.256-1.864 0.375-2.852h8.659v13.716z"></path>
<path d="M77.364 3.32c1.407 0 2.486 0.306 3.237 0.919s1.126 1.545 1.126 2.796v6.989h-1.998l-0.554-1.426h-0.075c-0.3 0.375-0.607 0.682-0.919 0.919s-0.672 0.413-1.079 0.525c-0.406 0.113-0.901 0.169-1.482 0.169-0.619 0-1.176-0.119-1.67-0.357-0.488-0.238-0.873-0.6-1.154-1.088-0.281-0.494-0.422-1.12-0.422-1.876 0-1.113 0.391-1.933 1.173-2.458 0.782-0.532 1.955-0.826 3.518-0.882l1.82-0.056v-0.46c0-0.55-0.144-0.954-0.432-1.21s-0.688-0.385-1.201-0.385c-0.507 0-1.004 0.072-1.492 0.216s-0.976 0.325-1.463 0.544l-0.948-1.933c0.557-0.294 1.179-0.525 1.867-0.694 0.694-0.169 1.41-0.253 2.148-0.253zM78.884 9.164l-1.107 0.038c-0.926 0.025-1.57 0.191-1.933 0.497-0.356 0.307-0.535 0.71-0.535 1.21 0 0.438 0.128 0.75 0.385 0.938 0.257 0.181 0.591 0.272 1.004 0.272 0.613 0 1.129-0.181 1.548-0.544 0.425-0.363 0.638-0.879 0.638-1.548v-0.863z"></path>
<path d="M68.431 3.536h3.152l-4.156 5.028 4.522 5.46h-3.246l-4.287-5.319v5.319h-2.861v-10.489h2.861v5.094l4.015-5.094z"></path>
<path d="M52.080 3.536v4.034h3.997v-4.034h2.861v10.489h-2.861v-4.325h-3.997v4.325h-2.861v-10.489h2.861z"></path>
<path d="M38.523 3.536v4.147c0 0.213-0.009 0.482-0.028 0.807-0.012 0.319-0.031 0.644-0.056 0.976s-0.050 0.629-0.075 0.891-0.044 0.441-0.056 0.535l4.841-7.355h3.443v10.489h-2.768v-4.184c0-0.344 0.013-0.722 0.038-1.135 0.025-0.419 0.053-0.813 0.084-1.182s0.053-0.647 0.066-0.835l-4.822 7.336h-3.434v-10.489h2.768z"></path>
<path d="M34.179 5.684h-3.434v8.34h-2.861v-8.34h-3.443v-2.148h9.738v2.148z"></path>
<path d="M18.57 3.32c1.407 0 2.486 0.306 3.237 0.919s1.126 1.545 1.126 2.796v6.989h-1.998l-0.554-1.426h-0.075c-0.3 0.375-0.607 0.682-0.919 0.919s-0.672 0.413-1.079 0.525c-0.407 0.113-0.901 0.169-1.482 0.169-0.619 0-1.176-0.119-1.67-0.357-0.488-0.238-0.873-0.6-1.154-1.088-0.281-0.494-0.422-1.12-0.422-1.876 0-1.113 0.391-1.933 1.173-2.458 0.782-0.532 1.954-0.826 3.518-0.882l1.82-0.056v-0.46c0-0.55-0.144-0.954-0.432-1.21s-0.688-0.385-1.201-0.385c-0.507 0-1.004 0.072-1.492 0.216s-0.976 0.325-1.464 0.544l-0.948-1.933c0.557-0.294 1.179-0.525 1.867-0.694 0.694-0.169 1.41-0.253 2.148-0.253zM20.090 9.164l-1.107 0.038c-0.926 0.025-1.57 0.191-1.933 0.497-0.356 0.307-0.535 0.71-0.535 1.21 0 0.438 0.128 0.75 0.385 0.938 0.256 0.181 0.591 0.272 1.004 0.272 0.613 0 1.129-0.181 1.548-0.544 0.425-0.363 0.638-0.879 0.638-1.548v-0.863z"></path>
<path d="M13.156 14.024h-3.321l-3.19-5.188-3.19 5.188h-3.115l4.55-7.074-4.259-6.642h3.208l2.955 4.935 2.899-4.935h3.133l-4.306 6.802 4.635 6.914z"></path>
</symbol>
<symbol id="icon-icon-add" viewBox="0 0 33 32">
<path d="M15.53 17.136h-7.261c-0.321 0-0.59-0.11-0.808-0.329s-0.327-0.49-0.327-0.812c0-0.322 0.109-0.591 0.327-0.806s0.488-0.323 0.808-0.323h7.261v-7.261c0-0.32 0.11-0.591 0.329-0.812s0.49-0.332 0.812-0.332c0.322 0 0.591 0.111 0.806 0.332s0.323 0.492 0.323 0.812v7.261h7.261c0.32 0 0.591 0.11 0.812 0.329s0.332 0.49 0.332 0.812c0 0.322-0.111 0.591-0.332 0.806s-0.492 0.323-0.812 0.323h-7.261v7.261c0 0.321-0.11 0.59-0.329 0.808s-0.49 0.327-0.812 0.327c-0.322 0-0.591-0.109-0.806-0.327s-0.323-0.488-0.323-0.808v-7.261z"></path>
</symbol>
<symbol id="icon-icon-close" viewBox="0 0 32 32">
<path stroke-linejoin="miter" stroke-linecap="butt" stroke-miterlimit="4" stroke-width="1.3333" d="M23.467 7.9c0.219 0 0.355 0.065 0.462 0.172s0.172 0.242 0.172 0.461c0 0.219-0.065 0.355-0.172 0.462l-7.005 7.005 7.005 7.004c0.107 0.107 0.172 0.243 0.172 0.462s-0.065 0.355-0.172 0.462-0.243 0.172-0.462 0.172c-0.219 0-0.355-0.065-0.462-0.172l-7.004-7.005-7.005 7.005c-0.107 0.107-0.243 0.172-0.462 0.172s-0.354-0.065-0.461-0.172c-0.107-0.107-0.172-0.243-0.172-0.462s0.065-0.355 0.172-0.462l7.004-7.004-7.004-7.005c-0.107-0.107-0.172-0.243-0.172-0.462s0.065-0.354 0.172-0.461 0.242-0.172 0.461-0.172c0.219 0 0.355 0.065 0.462 0.172l7.005 7.004 7.004-7.004c0.107-0.107 0.243-0.172 0.462-0.172z"></path>
</symbol>
<symbol id="icon-icon-menu" viewBox="0 0 33 32">
<path d="M5.602 24.295c-0.321 0-0.59-0.11-0.808-0.329s-0.327-0.493-0.327-0.82c0-0.322 0.109-0.591 0.327-0.807s0.488-0.323 0.808-0.323h22.127c0.321 0 0.591 0.11 0.812 0.329s0.331 0.49 0.331 0.812c0 0.328-0.11 0.599-0.331 0.814s-0.492 0.323-0.812 0.323h-22.127zM5.602 17.136c-0.321 0-0.59-0.11-0.808-0.329s-0.327-0.49-0.327-0.812c0-0.322 0.109-0.591 0.327-0.806s0.488-0.323 0.808-0.323h22.127c0.321 0 0.591 0.11 0.812 0.329s0.331 0.49 0.331 0.812c0 0.322-0.11 0.591-0.331 0.806s-0.492 0.323-0.812 0.323h-22.127zM5.602 9.984c-0.321 0-0.59-0.11-0.808-0.329s-0.327-0.493-0.327-0.82c0-0.322 0.109-0.591 0.327-0.806s0.488-0.323 0.808-0.323h22.127c0.321 0 0.591 0.11 0.812 0.329s0.331 0.49 0.331 0.812c0 0.328-0.11 0.599-0.331 0.815s-0.492 0.323-0.812 0.323h-22.127z"></path>
</symbol>
<symbol id="icon-forward" viewBox="0 0 33 32"><path d="M23.208 17.136H6.938a1.102 1.102 0 0 1-1.135-1.135 1.102 1.102 0 0 1 1.135-1.135h16.27l-7.336-7.335c-.227-.227-.341-.494-.344-.801s.109-.575.336-.803c.227-.229.495-.342.803-.339s.577.117.805.344l9.267 9.267a1.091 1.091 0 0 1 .348.805 1.083 1.083 0 0 1-.348.803l-9.275 9.267c-.234.232-.503.348-.806.348s-.567-.117-.794-.35c-.226-.227-.34-.492-.34-.795s.113-.568.34-.794l7.344-7.343z"></path>
</symbol>
<symbol id="icon-back" viewBox="0 0 33 32"><path d="m10.128 17.136 7.336 7.335c.227.227.341.494.344.8s-.109.574-.336.803c-.227.229-.494.343-.802.34s-.577-.117-.805-.344l-9.267-9.267a1.091 1.091 0 0 1-.348-.805 1.083 1.083 0 0 1 .348-.803l9.275-9.275c.235-.226.503-.34.806-.34s.567.113.794.34c.227.232.34.5.34.803s-.113.569-.34.796l-7.344 7.343h16.27a1.116 1.116 0 0 1 1.144 1.135c0 .326-.109.597-.328.812a1.12 1.12 0 0 1-.816.323h-16.27z"></path>
</symbol>
</defs>
</svg>
